<svg width="992" height="901" viewBox="0 0 992 901" fill="none" xmlns="http://www.w3.org/2000/svg">
<path opacity="0.0344828" d="M153.026 385.302C137.245 378.949 139.668 355.893 156.425 352.96L354.879 318.224C364.62 316.519 371.251 307.392 369.862 297.601L341.572 98.1267C339.184 81.2837 360.362 71.8543 371.281 84.8996L500.59 239.398C506.937 246.981 518.156 248.16 525.941 242.062L684.546 117.825C697.939 107.335 716.694 120.962 710.856 136.94L641.711 326.174C638.317 335.462 642.906 345.768 652.079 349.461L838.974 424.699C854.755 431.052 852.332 454.108 835.575 457.041L637.121 491.776C627.38 493.481 620.749 502.608 622.138 512.399L650.428 711.874C652.816 728.717 631.638 738.146 620.719 725.101L491.41 570.603C485.063 563.019 473.844 561.84 466.059 567.938L307.454 692.175C294.061 702.665 275.306 689.039 281.144 673.061L350.289 483.827C353.683 474.538 349.095 464.232 339.921 460.539L153.026 385.302Z" stroke="#E74141" stroke-opacity="0.1" stroke-width="1.4151"/>
<path opacity="0.0689655" d="M159.417 368.153C143.991 360.983 147.617 338.086 164.504 336.034L361.083 312.147C370.9 310.954 378 302.187 377.126 292.337L359.619 95.0873C358.115 78.1424 379.758 69.8344 389.979 83.4333L508.955 241.733C514.896 249.638 526.038 251.403 534.132 245.72L696.202 131.934C710.125 122.159 728.141 136.749 721.475 152.4L643.871 334.585C639.996 343.683 644.039 354.215 653.006 358.383L832.583 441.847C848.01 449.017 844.383 471.915 827.496 473.966L630.917 497.853C621.1 499.046 614 507.813 614.874 517.663L632.381 714.913C633.885 731.858 612.242 740.166 602.021 726.567L483.046 568.268C477.104 560.362 465.962 558.598 457.868 564.28L295.798 678.066C281.876 687.841 263.859 673.251 270.526 657.601L348.129 475.415C352.004 466.317 347.962 455.785 338.994 451.617L159.417 368.153Z" stroke="#E74141" stroke-opacity="0.1" stroke-width="1.4151"/>
<path opacity="0.103448" d="M166.65 351.618C151.62 343.65 156.44 320.974 173.411 319.809L367.533 306.479C377.399 305.802 384.948 297.418 384.59 287.535L377.555 93.0836C376.94 76.0832 398.989 68.9192 408.484 83.0344L517.088 244.484C522.608 252.69 533.643 255.035 542.022 249.784L706.905 146.466C721.32 137.433 738.549 152.945 731.072 168.226L645.555 343.005C641.208 351.888 644.695 362.617 653.432 367.249L825.35 458.382C840.38 466.35 835.56 489.026 818.589 490.192L624.467 503.521C614.601 504.199 607.052 512.582 607.409 522.465L614.444 716.917C615.059 733.917 593.011 741.081 583.516 726.966L474.912 565.516C469.392 557.311 458.357 554.965 449.977 560.216L285.094 663.534C270.679 672.567 253.451 657.055 260.927 641.774L346.445 466.995C350.791 458.112 347.305 447.383 338.568 442.751L166.65 351.618Z" stroke="#E74141" stroke-opacity="0.1" stroke-width="1.4151"/>
<path opacity="0.137931" d="M174.678 335.736C160.085 326.992 166.086 304.599 183.095 304.324L374.203 301.228C384.091 301.068 392.068 293.091 392.228 283.203L395.324 92.0945C395.6 75.0852 417.993 69.0851 426.736 83.6778L524.971 247.635C530.054 256.118 540.951 259.037 549.594 254.232L716.646 161.359C731.515 153.093 747.907 169.486 739.641 184.354L646.768 351.407C641.963 360.05 644.883 370.947 653.366 376.029L817.323 474.265C831.915 483.008 825.915 505.401 808.906 505.676L617.798 508.772C607.91 508.932 599.933 516.909 599.772 526.797L596.677 717.906C596.401 734.915 574.008 740.915 565.265 726.322L467.03 562.365C461.947 553.882 451.05 550.963 442.407 555.768L275.354 648.641C260.486 656.907 244.093 640.514 252.359 625.646L345.233 458.593C350.038 449.95 347.118 439.053 338.635 433.971L174.678 335.736Z" stroke="#E74141" stroke-opacity="0.1" stroke-width="1.4151"/>
<path opacity="0.172414" d="M183.452 320.544C169.337 311.049 176.501 289.001 193.501 289.616L381.066 296.402C390.949 296.759 399.333 289.211 400.01 279.345L412.867 92.0979C414.033 75.1264 436.709 70.3063 444.677 85.3366L532.582 251.165C537.214 259.903 547.943 263.389 556.826 259.043L725.415 176.554C740.696 169.078 756.208 186.306 747.175 200.721L647.516 359.764C642.265 368.144 644.611 379.179 652.816 384.698L808.548 489.457C822.663 498.952 815.499 521 798.499 520.385L610.934 513.599C601.051 513.242 592.668 520.79 591.99 530.656L579.133 717.903C577.967 734.874 555.291 739.694 547.323 724.664L459.418 558.835C454.786 550.098 444.057 546.612 435.174 550.958L266.585 633.447C251.304 640.923 235.792 623.695 244.825 609.28L344.484 450.236C349.735 441.857 347.389 430.822 339.184 425.302L183.452 320.544Z" stroke="#E74141" stroke-opacity="0.1" stroke-width="1.4151"/>
<path opacity="0.206897" d="M192.923 306.077C179.324 295.856 187.632 274.213 204.577 275.717L388.098 292.005C397.948 292.879 406.715 285.78 407.908 275.963L430.132 93.0662C432.184 76.1789 455.081 72.5523 462.251 87.979L539.906 255.056C544.074 264.024 554.606 268.067 563.704 264.192L733.209 191.99C748.86 185.323 763.449 203.34 753.674 217.263L647.808 368.052C642.126 376.145 643.89 387.288 651.796 393.229L799.077 503.924C812.676 514.145 804.368 535.788 787.423 534.284L603.902 517.996C594.052 517.121 585.285 524.221 584.092 534.038L561.868 716.935C559.816 733.822 536.919 737.448 529.749 722.022L452.094 554.944C447.926 545.976 437.394 541.934 428.296 545.809L258.791 618.011C243.14 624.678 228.551 606.661 238.326 592.738L344.192 441.949C349.874 433.855 348.11 422.713 340.204 416.771L192.923 306.077Z" stroke="#E74141" stroke-opacity="0.1" stroke-width="1.4151"/>
<path opacity="0.241379" d="M203.039 292.364C189.994 281.446 199.423 260.267 216.266 262.656L395.271 288.043C405.062 289.431 414.189 282.8 415.894 273.059L447.065 94.9704C449.998 78.2137 473.054 75.7904 479.407 91.5712L546.924 259.287C550.617 268.461 560.923 273.05 570.211 269.656L740.026 207.606C756.004 201.768 769.631 220.523 759.141 233.916L647.653 376.245C641.555 384.03 642.734 395.249 650.317 401.597L788.961 517.636C802.006 528.555 792.577 549.733 775.734 547.345L596.729 521.958C586.938 520.569 577.811 527.2 576.106 536.941L544.935 715.03C542.002 731.787 518.946 734.21 512.593 718.429L445.076 550.713C441.383 541.539 431.077 536.951 421.789 540.345L251.974 602.394C235.996 608.232 222.369 589.477 232.859 576.085L344.347 433.755C350.445 425.97 349.266 414.751 341.683 408.404L203.039 292.364Z" stroke="#E74141" stroke-opacity="0.1" stroke-width="1.4151"/>
<path opacity="0.275862" d="M213.747 279.435C201.291 267.849 211.816 247.193 228.511 250.46L402.56 284.518C412.265 286.417 421.726 280.273 423.939 270.635L463.617 97.7798C467.423 81.1996 490.574 79.9863 496.092 96.0779L553.621 263.838C556.829 273.193 566.881 278.314 576.334 275.411L745.87 223.346C762.132 218.352 774.758 237.795 763.582 250.619L647.061 384.321C640.564 391.777 641.154 403.042 648.395 409.778L778.253 530.567C790.709 542.153 780.184 562.81 763.489 559.543L589.44 525.484C579.735 523.585 570.274 529.729 568.061 539.368L528.383 712.223C524.577 728.803 501.426 730.016 495.908 713.924L438.379 546.164C435.171 536.81 425.119 531.688 415.666 534.591L246.13 586.656C229.868 591.651 217.242 572.208 228.418 559.383L344.939 425.681C351.436 418.226 350.846 406.96 343.605 400.225L213.747 279.435Z" stroke="#E74141" stroke-opacity="0.1" stroke-width="1.4151"/>
<path opacity="0.310345" d="M224.993 267.31C213.161 255.087 224.752 235.01 241.253 239.147L409.939 281.43C419.532 283.834 429.302 278.194 432.015 268.684L479.74 101.456C484.409 85.0979 507.592 85.0979 512.26 101.456L559.985 268.684C562.699 278.194 572.468 283.834 582.061 281.43L750.747 239.147C767.248 235.01 778.839 255.087 767.007 267.31L646.045 392.254C639.167 399.359 639.167 410.641 646.045 417.746L767.007 542.69C778.839 554.913 767.248 574.99 750.747 570.853L582.061 528.57C572.468 526.166 562.699 531.806 559.985 541.316L512.26 708.544C507.592 724.902 484.409 724.902 479.74 708.544L432.015 541.316C429.302 531.806 419.532 526.166 409.939 528.57L241.253 570.853C224.752 574.99 213.161 554.913 224.993 542.69L345.955 417.746C352.833 410.641 352.833 399.359 345.955 392.254L224.993 267.31Z" stroke="#E74141" stroke-opacity="0.1" stroke-width="1.4151"/>
<path opacity="0.344828" d="M236.723 256.012C225.547 243.187 238.173 223.744 254.435 228.738L417.383 278.78C426.836 281.683 436.888 276.562 440.096 267.207L495.389 105.966C500.908 89.8743 524.059 91.0876 527.865 107.668L566.001 273.806C568.213 283.444 577.675 289.589 587.38 287.689L754.666 254.954C771.361 251.687 781.886 272.344 769.43 283.93L644.618 400.026C637.377 406.761 636.787 418.027 643.284 425.482L755.276 553.988C766.453 566.813 753.827 586.256 737.565 581.262L574.617 531.22C565.163 528.317 555.112 533.438 551.904 542.793L496.61 704.034C491.092 720.126 467.941 718.913 464.135 702.332L425.999 536.194C423.786 526.556 414.325 520.412 404.62 522.311L237.334 555.046C220.639 558.313 210.114 537.657 222.57 526.07L347.382 409.974C354.623 403.239 355.213 391.973 348.716 384.518L236.723 256.012Z" stroke="#E74141" stroke-opacity="0.1" stroke-width="1.4151"/>
<path opacity="0.37931" d="M248.882 245.557C238.392 232.165 252.018 213.41 267.996 219.248L424.866 276.567C434.154 279.961 444.46 275.373 448.153 266.199L510.523 111.269C516.875 95.4879 539.932 97.9111 542.864 114.668L571.659 279.18C573.364 288.921 582.491 295.552 592.282 294.163L757.641 270.712C774.484 268.323 783.913 289.502 770.868 300.42L642.794 407.614C635.21 413.961 634.031 425.18 640.129 432.965L743.118 564.444C753.608 577.836 739.981 596.592 724.003 590.753L567.134 533.434C557.845 530.04 547.54 534.629 543.846 543.803L481.477 698.733C475.124 714.514 452.068 712.09 449.135 695.334L420.34 530.822C418.635 521.08 409.508 514.45 399.717 515.838L234.359 539.29C217.516 541.678 208.086 520.5 221.132 509.581L349.206 402.388C356.789 396.041 357.969 384.821 351.87 377.036L248.882 245.557Z" stroke="#E74141" stroke-opacity="0.1" stroke-width="1.4151"/>
<path opacity="0.413793" d="M261.413 235.959C251.639 222.036 266.228 204.019 281.879 210.686L432.363 274.786C441.461 278.661 451.993 274.619 456.161 265.651L525.101 117.322C532.271 101.895 555.169 105.522 557.221 122.409L576.951 284.782C578.144 294.599 586.911 301.698 596.761 300.824L759.688 286.364C776.633 284.86 784.941 306.503 771.342 316.724L640.588 414.997C632.683 420.938 630.918 432.081 636.601 440.174L730.587 574.043C740.362 587.965 725.772 605.982 710.122 599.316L559.637 535.216C550.539 531.34 540.007 535.383 535.839 544.351L466.899 692.68C459.729 708.107 436.831 704.48 434.779 687.593L415.049 525.22C413.857 515.403 405.089 508.303 395.239 509.177L232.312 523.638C215.367 525.142 207.059 503.499 220.658 493.278L351.412 395.005C359.318 389.063 361.082 377.921 355.4 369.827L261.413 235.959Z" stroke="#E74141" stroke-opacity="0.1" stroke-width="1.4151"/>
<path opacity="0.448276" d="M274.261 227.226C265.229 212.811 280.741 195.582 296.022 203.059L439.85 273.432C448.732 277.779 459.462 274.293 464.093 265.555L539.088 124.082C547.056 109.052 569.732 113.872 570.897 130.843L581.866 290.589C582.544 300.454 590.927 308.003 600.81 307.646L760.827 301.856C777.827 301.241 784.991 323.29 770.876 332.785L638.017 422.157C629.812 427.676 627.466 438.711 632.717 447.091L717.739 582.775C726.772 597.19 711.259 614.419 695.979 606.942L552.151 536.569C543.268 532.223 532.539 535.709 527.907 544.446L452.912 685.919C444.945 700.95 422.268 696.13 421.103 679.158L410.134 519.413C409.457 509.547 401.073 501.998 391.19 502.356L231.174 508.145C214.173 508.76 207.009 486.711 221.124 477.216L353.983 387.844C362.189 382.325 364.534 371.29 359.283 362.91L274.261 227.226Z" stroke="#E74141" stroke-opacity="0.1" stroke-width="1.4151"/>
<path opacity="0.482759" d="M287.37 219.366C279.104 204.497 295.497 188.105 310.365 196.371L447.301 272.5C455.945 277.306 466.841 274.386 471.924 265.903L552.449 131.504C561.193 116.912 583.586 122.912 583.861 139.921L586.399 296.576C586.559 306.464 594.536 314.441 604.424 314.601L761.079 317.139C778.088 317.415 784.089 339.808 769.496 348.551L635.097 429.076C626.614 434.159 623.694 445.056 628.5 453.699L704.63 590.635C712.896 605.503 696.503 621.896 681.635 613.63L544.698 537.5C536.055 532.695 525.158 535.615 520.076 544.098L439.55 678.496C430.807 693.089 408.414 687.089 408.138 670.08L405.601 513.424C405.441 503.537 397.464 495.559 387.576 495.399L230.921 492.862C213.911 492.586 207.911 470.193 222.504 461.45L356.902 380.925C365.385 375.842 368.305 364.945 363.5 356.302L287.37 219.366Z" stroke="#E74141" stroke-opacity="0.1" stroke-width="1.4151"/>
<path opacity="0.517241" d="M300.685 212.381C293.208 197.101 310.436 181.588 324.852 190.621L454.696 271.984C463.076 277.235 474.111 274.889 479.63 266.684L565.156 139.543C574.651 125.428 596.699 132.592 596.084 149.592L590.544 302.722C590.187 312.605 597.735 320.988 607.601 321.666L760.471 332.162C777.443 333.328 782.263 356.004 767.233 363.972L631.848 435.739C623.111 440.371 619.625 451.1 623.971 459.983L691.316 597.62C698.792 612.901 681.564 628.413 667.149 619.38L537.304 538.018C528.924 532.767 517.89 535.112 512.37 543.318L426.844 670.459C417.349 684.574 395.301 677.41 395.916 660.409L401.456 507.28C401.814 497.397 394.265 489.013 384.399 488.336L231.529 477.839C214.557 476.674 209.737 453.997 224.768 446.03L360.152 374.263C368.889 369.631 372.375 358.902 368.029 350.019L300.685 212.381Z" stroke="#E74141" stroke-opacity="0.1" stroke-width="1.4151"/>
<path opacity="0.551724" d="M314.149 206.27C307.483 190.62 325.499 176.03 339.422 185.805L462.01 271.872C470.104 277.554 481.246 275.789 487.188 267.884L577.18 148.148C587.401 134.549 609.044 142.857 607.54 159.802L594.298 309C593.424 318.85 600.523 327.617 610.34 328.81L759.031 346.878C775.918 348.93 779.545 371.827 764.118 378.997L628.288 442.128C619.32 446.296 615.277 456.828 619.153 465.926L677.851 603.73C684.518 619.381 666.501 633.97 652.578 624.195L529.99 538.129C521.897 532.446 510.754 534.211 504.813 542.116L414.821 661.853C404.6 675.451 382.957 667.143 384.461 650.198L397.703 501.001C398.577 491.15 391.477 482.383 381.66 481.19L232.97 463.123C216.082 461.071 212.456 438.173 227.883 431.003L363.713 367.872C372.68 363.704 376.723 353.172 372.848 344.074L314.149 206.27Z" stroke="#E74141" stroke-opacity="0.1" stroke-width="1.4151"/>
<path opacity="0.586207" d="M327.71 201.031C321.871 185.053 340.627 171.427 354.019 181.917L469.222 272.157C477.007 278.255 488.226 277.075 494.574 269.492L588.497 157.272C599.416 144.227 620.594 153.656 618.206 170.499L597.657 315.388C596.269 325.179 602.9 334.306 612.641 336.011L756.788 361.241C773.545 364.174 775.968 387.23 760.187 393.583L624.436 448.232C615.262 451.925 610.673 462.231 614.067 471.519L664.291 608.97C670.129 624.948 651.374 638.575 637.982 628.084L522.779 537.845C514.993 531.746 503.774 532.926 497.427 540.509L403.503 652.729C392.585 665.774 371.406 656.345 373.795 639.502L394.343 494.613C395.732 484.822 389.101 475.695 379.36 473.99L235.212 448.76C218.456 445.827 216.032 422.771 231.813 416.418L367.565 361.769C376.738 358.076 381.327 347.77 377.933 338.482L327.71 201.031Z" stroke="#E74141" stroke-opacity="0.1" stroke-width="1.4151"/>
<path opacity="0.62069" d="M341.312 196.656C336.317 180.394 355.76 167.768 368.585 178.944L476.31 272.826C483.765 279.323 495.031 278.733 501.766 271.492L599.088 166.864C610.674 154.408 631.33 164.933 628.063 181.628L600.622 321.861C598.722 331.566 604.867 341.027 614.505 343.24L753.776 375.209C770.356 379.015 771.569 402.166 755.478 407.684L620.312 454.036C610.957 457.244 605.836 467.295 608.739 476.749L650.688 613.345C655.682 629.607 636.24 642.233 623.415 631.057L515.69 537.175C508.235 530.678 496.969 531.269 490.234 538.509L392.912 643.137C381.326 655.593 360.67 645.068 363.937 628.373L391.378 488.14C393.277 478.435 387.133 468.974 377.495 466.761L238.224 434.792C221.644 430.986 220.43 407.835 236.522 402.317L371.688 355.965C381.043 352.757 386.164 342.706 383.261 333.252L341.312 196.656Z" stroke="#E74141" stroke-opacity="0.1" stroke-width="1.4151"/>
<path opacity="0.655172" d="M354.903 193.133C350.767 176.632 370.844 165.041 383.066 176.873L483.254 273.867C490.359 280.746 501.64 280.746 508.745 273.867L608.933 176.873C621.156 165.041 641.233 176.632 637.096 193.133L603.191 328.396C600.787 337.988 606.427 347.758 615.937 350.472L750.03 388.74C766.389 393.409 766.389 416.592 750.03 421.26L615.937 459.529C606.427 462.243 600.787 472.012 603.191 481.605L637.096 616.867C641.233 633.368 621.156 644.96 608.933 633.127L508.745 536.133C501.64 529.255 490.359 529.255 483.254 536.133L383.066 633.127C370.844 644.96 350.767 633.368 354.903 616.867L388.808 481.605C391.212 472.012 385.572 462.242 376.062 459.529L241.969 421.26C225.611 416.592 225.611 393.409 241.969 388.74L376.062 350.472C385.572 347.758 391.213 337.988 388.808 328.396L354.903 193.133Z" stroke="#E74141" stroke-opacity="0.1" stroke-width="1.4151"/>
<path opacity="0.689655" d="M368.433 190.432C365.166 173.737 385.822 163.212 397.408 175.668L490.036 275.25C496.771 282.491 508.037 283.081 515.492 276.584L618.022 187.23C630.846 176.054 650.289 188.68 645.295 204.942L605.369 334.951C602.466 344.404 607.587 354.456 616.942 357.663L745.589 401.78C761.681 407.298 760.467 430.449 743.887 434.255L611.333 464.682C601.695 466.895 595.55 476.356 597.45 486.061L623.567 619.531C626.834 636.226 606.178 646.751 594.592 634.295L501.964 534.713C495.229 527.472 483.963 526.882 476.508 533.379L373.979 622.733C361.154 633.909 341.711 621.283 346.705 605.021L386.631 475.012C389.535 465.559 384.413 455.507 375.059 452.3L246.411 408.183C230.32 402.665 231.533 379.514 248.113 375.708L380.667 345.281C390.306 343.068 396.45 333.607 394.551 323.902L368.433 190.432Z" stroke="#E74141" stroke-opacity="0.1" stroke-width="1.4151"/>
<path opacity="0.724138" d="M381.85 188.573C379.461 171.73 400.64 162.301 411.558 175.346L496.636 276.997C502.983 284.58 514.202 285.759 521.988 279.661L626.34 197.921C639.732 187.431 658.488 201.057 652.649 217.036L607.156 341.54C603.762 350.828 608.351 361.134 617.524 364.827L740.49 414.329C756.271 420.682 753.848 443.738 737.091 446.671L606.52 469.525C596.779 471.23 590.148 480.357 591.537 490.148L610.15 621.39C612.539 638.233 591.36 647.662 580.441 634.617L495.364 532.967C489.017 525.383 477.798 524.204 470.012 530.302L365.66 612.043C352.268 622.533 333.512 608.906 339.351 592.928L384.844 468.424C388.238 459.135 383.649 448.829 374.475 445.136L251.51 395.634C235.729 389.282 238.152 366.225 254.909 363.292L385.48 340.438C395.221 338.733 401.852 329.607 400.463 319.816L381.85 188.573Z" stroke="#E74141" stroke-opacity="0.1" stroke-width="1.4151"/>
<path opacity="0.758621" d="M395.107 187.519C393.603 170.574 415.246 162.266 425.467 175.865L503.037 279.074C508.979 286.979 520.121 288.744 528.215 283.061L633.882 208.874C647.805 199.1 665.822 213.689 659.155 229.34L608.559 348.123C604.683 357.221 608.726 367.753 617.694 371.921L734.775 426.338C750.202 433.508 746.576 456.406 729.688 458.458L601.521 474.031C591.704 475.224 584.605 483.991 585.479 493.842L596.893 622.446C598.397 639.391 576.754 647.699 566.533 634.1L488.963 530.891C483.021 522.985 471.879 521.221 463.785 526.903L358.118 601.09C344.195 610.865 326.178 596.275 332.845 580.625L383.441 461.842C387.317 452.744 383.274 442.212 374.306 438.044L257.224 383.627C241.798 376.457 245.424 353.559 262.312 351.507L390.479 335.933C400.296 334.741 407.395 325.973 406.521 316.123L395.107 187.519Z" stroke="#E74141" stroke-opacity="0.1" stroke-width="1.4151"/>
<path opacity="0.793103" d="M408.157 187.245C407.542 170.244 429.59 163.08 439.085 177.195L509.224 281.464C514.744 289.669 525.779 292.015 534.159 286.764L640.644 220.038C655.059 211.005 672.288 226.518 664.811 241.798L609.582 354.675C605.236 363.558 608.722 374.287 617.459 378.919L728.488 437.775C743.518 445.743 738.698 468.419 721.727 469.584L596.358 478.193C586.492 478.87 578.943 487.254 579.301 497.136L583.844 622.718C584.459 639.719 562.411 646.883 552.916 632.768L482.776 528.499C477.257 520.294 466.222 517.948 457.842 523.199L351.357 589.925C336.941 598.958 319.713 583.445 327.19 568.165L382.419 455.288C386.765 446.405 383.279 435.676 374.542 431.044L263.513 372.188C248.483 364.22 253.303 341.544 270.274 340.379L395.643 331.77C405.509 331.093 413.058 322.709 412.7 312.826L408.157 187.245Z" stroke="#E74141" stroke-opacity="0.1" stroke-width="1.4151"/>
<path opacity="0.827586" d="M420.954 187.729C421.229 170.719 443.622 164.719 452.366 179.312L515.181 284.152C520.264 292.635 531.16 295.555 539.804 290.75L646.624 231.363C661.492 223.097 677.885 239.49 669.619 254.358L610.232 361.178C605.427 369.821 608.346 380.718 616.83 385.801L721.67 448.616C736.263 457.36 730.262 479.753 713.253 480.028L591.051 482.008C581.163 482.168 573.186 490.145 573.026 500.033L571.046 622.235C570.771 639.244 548.378 645.244 539.635 630.652L476.819 525.811C471.736 517.328 460.84 514.409 452.196 519.214L345.377 578.6C330.508 586.867 314.115 570.474 322.381 555.605L381.768 448.785C386.573 440.142 383.654 429.245 375.171 424.163L270.33 361.347C255.737 352.604 261.738 330.211 278.747 329.936L400.949 327.956C410.837 327.796 418.814 319.819 418.974 309.931L420.954 187.729Z" stroke="#E74141" stroke-opacity="0.1" stroke-width="1.4151"/>
<path opacity="0.862069" d="M433.456 188.942C434.621 171.971 457.298 167.151 465.265 182.181L520.894 287.121C525.526 295.858 536.255 299.344 545.138 294.998L651.824 242.797C667.105 235.321 682.617 252.549 673.584 266.964L610.518 367.61C605.267 375.99 607.612 387.025 615.818 392.544L714.368 458.837C728.483 468.332 721.319 490.381 704.319 489.766L585.624 485.472C575.741 485.114 567.358 492.663 566.68 502.529L558.544 621.022C557.379 637.994 534.702 642.814 526.735 627.783L471.106 522.844C466.474 514.106 455.745 510.62 446.862 514.966L340.176 567.167C324.895 574.643 309.383 557.415 318.416 543L381.482 442.354C386.733 433.974 384.388 422.939 376.182 417.42L277.632 351.127C263.517 341.632 270.681 319.583 287.681 320.198L406.376 324.493C416.259 324.85 424.642 317.302 425.32 307.436L433.456 188.942Z" stroke="#E74141" stroke-opacity="0.1" stroke-width="1.4151"/>
<path opacity="0.896552" d="M445.623 190.855C447.675 173.968 470.573 170.341 477.743 185.768L526.351 290.35C530.519 299.318 541.051 303.361 550.149 299.486L656.251 254.291C671.902 247.624 686.491 265.641 676.717 279.563L610.449 373.95C604.767 382.044 606.532 393.186 614.437 399.128L706.628 468.417C720.227 478.638 711.919 500.281 694.974 498.778L580.099 488.582C570.248 487.708 561.481 494.807 560.288 504.624L546.377 619.109C544.325 635.996 521.428 639.623 514.258 624.196L465.65 519.613C461.482 510.645 450.95 506.603 441.852 510.478L335.75 555.673C320.099 562.34 305.509 544.323 315.284 530.4L381.551 436.013C387.234 427.92 385.469 416.777 377.564 410.836L285.373 341.546C271.774 331.326 280.082 309.682 297.027 311.186L411.902 321.382C421.752 322.256 430.519 315.157 431.712 305.34L445.623 190.855Z" stroke="#E74141" stroke-opacity="0.1" stroke-width="1.4151"/>
<path opacity="0.931035" d="M457.416 193.436C460.349 176.679 483.405 174.256 489.758 190.037L531.539 293.824C535.232 302.998 545.538 307.586 554.826 304.192L659.912 265.794C675.89 259.956 689.517 278.712 679.027 292.104L610.035 380.181C603.937 387.966 605.116 399.185 612.7 405.532L698.496 477.34C711.541 488.259 702.112 509.437 685.269 507.049L574.496 491.339C564.705 489.95 555.578 496.581 553.873 506.322L534.584 616.528C531.651 633.284 508.595 635.708 502.242 619.927L460.461 516.14C456.768 506.966 446.462 502.378 437.174 505.772L332.088 544.169C316.11 550.008 302.483 531.252 312.973 517.86L381.965 429.783C388.063 421.998 386.884 410.779 379.3 404.432L293.504 332.624C280.459 321.705 289.888 300.527 306.731 302.915L417.504 318.625C427.295 320.014 436.422 313.383 438.127 303.642L457.416 193.436Z" stroke="#E74141" stroke-opacity="0.1" stroke-width="1.4151"/>
<path opacity="0.965517" d="M468.8 196.652C472.606 180.071 495.757 178.858 501.275 194.95L536.449 297.522C539.657 306.876 549.709 311.998 559.162 309.094L662.819 277.261C679.081 272.267 691.708 291.71 680.531 304.534L609.288 386.282C602.791 393.737 603.382 405.003 610.622 411.738L690.02 485.591C702.476 497.177 691.951 517.834 675.256 514.567L568.839 493.743C559.134 491.844 549.673 497.988 547.46 507.626L523.2 613.313C519.394 629.893 496.243 631.106 490.725 615.015L455.551 512.443C452.343 503.089 442.291 497.967 432.838 500.87L329.181 532.704C312.919 537.698 300.292 518.255 311.469 505.43L382.712 423.683C389.209 416.227 388.618 404.962 381.378 398.226L301.98 324.373C289.524 312.787 300.049 292.131 316.744 295.398L423.161 316.222C432.866 318.121 442.327 311.977 444.54 302.338L468.8 196.652Z" stroke="#E74141" stroke-opacity="0.1" stroke-width="1.4151"/>
<path d="M479.74 200.465C484.409 184.106 507.592 184.106 512.26 200.465L541.072 301.423C543.786 310.933 553.556 316.573 563.148 314.169L664.987 288.642C681.488 284.505 693.08 304.583 681.247 316.805L608.221 392.236C601.342 399.341 601.342 410.622 608.221 417.728L681.247 493.159C693.08 505.381 681.488 525.458 664.987 521.322L563.148 495.795C553.556 493.39 543.786 499.031 541.072 508.54L512.26 609.499C507.592 625.857 484.409 625.857 479.74 609.499L450.928 508.54C448.214 499.031 438.444 493.39 428.852 495.795L327.013 521.322C310.512 525.458 298.921 505.381 310.753 493.159L383.78 417.727C390.658 410.622 390.658 399.341 383.78 392.236L310.753 316.805C298.92 304.583 310.512 284.505 327.013 288.642L428.852 314.169C438.444 316.573 448.214 310.933 450.928 301.423L479.74 200.465Z" stroke="#E74141" stroke-opacity="0.1" stroke-width="1.4151"/>
</svg>
