<svg width="994" height="1073" viewBox="0 0 994 1073" fill="none" xmlns="http://www.w3.org/2000/svg">
<path opacity="0.0344828" d="M164.963 490.04C149.183 483.687 151.606 460.631 168.363 457.698L401.323 416.922C411.065 415.217 417.695 406.091 416.307 396.299L383.098 162.14C380.709 145.297 401.888 135.868 412.806 148.913L564.6 330.275C570.947 337.859 582.166 339.038 589.951 332.94L776.135 187.101C789.527 176.61 808.282 190.237 802.444 206.215L721.276 428.353C717.882 437.642 722.471 447.948 731.645 451.641L951.037 539.961C966.818 546.313 964.394 569.369 947.638 572.302L714.677 613.078C704.936 614.783 698.305 623.91 699.693 633.701L732.902 867.86C735.291 884.703 714.112 894.133 703.194 881.087L551.401 699.725C545.054 692.142 533.834 690.962 526.049 697.06L339.865 842.9C326.473 853.39 307.718 839.763 313.556 823.785L394.724 601.647C398.118 592.359 393.529 582.053 384.356 578.36L164.963 490.04Z" stroke="#E74141" stroke-width="1.4151"/>
<path opacity="0.0689655" d="M172.31 470.375C156.883 463.205 160.51 440.308 177.397 438.256L408.325 410.196C418.141 409.003 425.241 400.236 424.367 390.385L403.801 158.67C402.297 141.725 423.94 133.417 434.161 147.016L573.925 332.975C579.867 340.88 591.009 342.645 599.103 336.963L789.491 203.295C803.414 193.52 821.431 208.11 814.764 223.76L723.601 437.779C719.725 446.878 723.768 457.41 732.736 461.578L943.69 559.625C959.117 566.795 955.49 589.692 938.603 591.744L707.676 619.804C697.859 620.997 690.759 629.764 691.633 639.615L712.199 871.33C713.703 888.275 692.06 896.583 681.839 882.984L542.075 697.025C536.133 689.12 524.991 687.355 516.897 693.037L326.509 826.705C312.586 836.48 294.569 821.891 301.236 806.24L392.399 592.221C396.275 583.123 392.232 572.591 383.264 568.423L172.31 470.375Z" stroke="#E74141" stroke-width="1.4151"/>
<path opacity="0.103448" d="M180.622 451.409C165.592 443.442 170.412 420.765 187.384 419.6L415.596 403.93C425.462 403.252 433.01 394.869 432.653 384.986L424.382 156.386C423.767 139.386 445.816 132.222 455.311 146.337L582.988 336.139C588.507 344.345 599.542 346.69 607.922 341.439L801.76 219.977C816.175 210.944 833.404 226.457 825.927 241.737L725.392 447.21C721.045 456.093 724.532 466.822 733.269 471.453L935.378 578.591C950.408 586.559 945.588 609.235 928.616 610.4L700.404 626.07C690.538 626.748 682.989 635.131 683.347 645.014L691.617 873.614C692.232 890.615 670.184 897.778 660.689 883.663L533.012 693.861C527.493 685.655 516.458 683.31 508.078 688.561L314.24 810.023C299.825 819.056 282.596 803.544 290.073 788.263L390.608 582.791C394.954 573.908 391.468 563.179 382.731 558.547L180.622 451.409Z" stroke="#E74141" stroke-width="1.4151"/>
<path opacity="0.137931" d="M189.848 433.188C175.256 424.444 181.256 402.051 198.265 401.776L423.109 398.134C432.997 397.973 440.974 389.996 441.134 380.108L444.776 155.265C445.052 138.256 467.445 132.255 476.188 146.848L591.764 339.747C596.847 348.23 607.743 351.15 616.387 346.345L812.928 237.077C827.796 228.811 844.189 245.204 835.923 260.072L726.656 456.614C721.85 465.257 724.77 476.154 733.253 481.236L926.152 596.813C940.745 605.556 934.745 627.949 917.735 628.224L692.892 631.867C683.004 632.027 675.027 640.004 674.867 649.892L671.225 874.735C670.949 891.744 648.556 897.745 639.813 883.152L524.237 690.253C519.154 681.77 508.257 678.85 499.614 683.655L303.073 792.923C288.205 801.189 271.812 784.796 280.078 769.928L389.345 573.386C394.15 564.743 391.231 553.846 382.748 548.764L189.848 433.188Z" stroke="#E74141" stroke-width="1.4151"/>
<path opacity="0.172414" d="M199.932 415.754C185.817 406.259 192.981 384.21 209.981 384.825L430.833 392.816C440.716 393.173 449.099 385.624 449.777 375.758L464.916 155.281C466.081 138.31 488.758 133.49 496.725 148.52L600.232 343.778C604.864 352.516 615.593 356.002 624.475 351.656L822.984 254.528C838.264 247.051 853.777 264.279 844.744 278.695L727.399 465.963C722.148 474.343 724.493 485.378 732.698 490.897L916.068 614.247C930.183 623.742 923.019 645.79 906.019 645.175L685.167 637.185C675.284 636.828 666.9 644.376 666.223 654.242L651.084 874.72C649.919 891.691 627.242 896.511 619.275 881.481L515.768 686.222C511.136 677.485 500.407 673.999 491.524 678.345L293.016 775.473C277.735 782.95 262.223 765.721 271.256 751.306L388.601 564.038C393.852 555.658 391.507 544.623 383.301 539.103L199.932 415.754Z" stroke="#E74141" stroke-width="1.4151"/>
<path opacity="0.206897" d="M210.817 399.146C197.218 388.925 205.526 367.282 222.471 368.786L438.741 387.981C448.592 388.855 457.359 381.756 458.552 371.939L484.741 156.404C486.793 139.517 509.691 135.89 516.861 151.317L608.373 348.21C612.541 357.177 623.073 361.22 632.171 357.345L831.924 272.258C847.575 265.592 862.165 283.608 852.39 297.531L727.631 475.229C721.949 483.322 723.714 494.465 731.619 500.406L905.183 630.855C918.782 641.075 910.474 662.719 893.529 661.215L677.259 642.02C667.409 641.145 658.641 648.245 657.448 658.062L631.259 873.597C629.207 890.484 606.309 894.111 599.139 878.684L507.628 681.791C503.459 672.823 492.928 668.781 483.829 672.656L284.076 757.742C268.425 764.409 253.836 746.392 263.611 732.47L388.369 554.772C394.051 546.678 392.286 535.536 384.381 529.594L210.817 399.146Z" stroke="#E74141" stroke-width="1.4151"/>
<path opacity="0.241379" d="M222.445 383.4C209.4 372.482 218.829 351.303 235.672 353.692L446.803 383.635C456.594 385.023 465.721 378.392 467.426 368.651L504.191 158.601C507.124 141.844 530.18 139.421 536.533 155.202L616.167 353.018C619.86 362.192 630.166 366.78 639.455 363.386L839.747 290.201C855.725 284.363 869.351 303.118 858.861 316.51L727.364 484.383C721.266 492.168 722.446 503.388 730.029 509.735L893.555 646.6C906.6 657.519 897.171 678.697 880.328 676.309L669.197 646.366C659.406 644.977 650.279 651.608 648.574 661.349L611.809 871.399C608.876 888.156 585.82 890.579 579.467 874.799L499.833 676.982C496.14 667.809 485.834 663.22 476.545 666.614L276.254 739.799C260.275 745.638 246.649 726.882 257.139 713.49L388.636 545.617C394.734 537.832 393.555 526.612 385.971 520.265L222.445 383.4Z" stroke="#E74141" stroke-width="1.4151"/>
<path opacity="0.275862" d="M234.756 368.549C222.3 356.963 232.824 336.307 249.519 339.574L454.989 379.781C464.694 381.68 474.156 375.536 476.368 365.897L523.209 161.837C527.015 145.257 550.167 144.044 555.685 160.135L623.599 358.181C626.807 367.535 636.859 372.657 646.312 369.754L846.454 308.289C862.716 303.295 875.342 322.738 864.166 335.563L726.61 493.402C720.113 500.857 720.703 512.123 727.944 518.858L881.245 661.454C893.701 673.04 883.176 693.696 866.481 690.429L661.011 650.222C651.306 648.323 641.845 654.467 639.632 664.106L592.791 868.166C588.985 884.746 565.834 885.959 560.316 869.868L492.401 671.822C489.193 662.467 479.142 657.346 469.688 660.249L269.546 721.713C253.284 726.707 240.658 707.264 251.835 694.44L389.39 536.601C395.887 529.146 395.297 517.88 388.056 511.145L234.756 368.549Z" stroke="#E74141" stroke-width="1.4151"/>
<path opacity="0.310345" d="M247.687 354.616C235.854 342.394 247.446 322.317 263.947 326.453L463.271 376.416C472.863 378.821 482.633 373.18 485.347 363.67L541.74 166.069C546.408 149.711 569.591 149.711 574.26 166.069L630.653 363.67C633.367 373.18 643.136 378.82 652.729 376.416L852.053 326.453C868.554 322.317 880.145 342.394 868.313 354.616L725.382 502.254C718.503 509.359 718.503 520.641 725.382 527.746L868.313 675.384C880.145 687.606 868.554 707.683 852.053 703.547L652.729 653.584C643.136 651.179 633.367 656.82 630.653 666.33L574.26 863.931C569.591 880.289 546.408 880.289 541.74 863.931L485.347 666.33C482.633 656.82 472.863 651.179 463.271 653.584L263.947 703.547C247.446 707.683 235.854 687.606 247.687 675.384L390.618 527.746C397.497 520.641 397.497 509.359 390.618 502.254L247.687 354.616Z" stroke="#E74141" stroke-width="1.4151"/>
<path opacity="0.344828" d="M261.178 341.629C250.001 328.805 262.627 309.362 278.889 314.356L471.62 373.544C481.073 376.447 491.125 371.326 494.333 361.971L559.732 171.259C565.251 155.167 588.402 156.381 592.208 172.961L637.314 369.465C639.527 379.103 648.988 385.247 658.693 383.348L856.555 344.63C873.25 341.363 883.774 362.019 871.318 373.605L723.695 510.921C716.454 517.656 715.863 528.922 722.36 536.377L854.822 688.371C865.999 701.196 853.373 720.639 837.111 715.644L644.38 656.456C634.927 653.553 624.875 658.674 621.667 668.029L556.268 858.741C550.749 874.833 527.598 873.619 523.792 857.039L478.686 660.535C476.473 650.897 467.012 644.753 457.307 646.652L259.445 685.37C242.751 688.637 232.226 667.981 244.682 656.395L392.305 519.079C399.546 512.344 400.137 501.078 393.64 493.623L261.178 341.629Z" stroke="#E74141" stroke-width="1.4151"/>
<path opacity="0.37931" d="M275.164 329.607C264.674 316.215 278.301 297.46 294.279 303.298L480.007 371.162C489.295 374.556 499.601 369.967 503.294 360.793L577.138 177.361C583.49 161.581 606.546 164.004 609.479 180.761L643.572 375.537C645.277 385.278 654.403 391.909 664.195 390.521L859.973 362.755C876.816 360.366 886.246 381.545 873.2 392.463L721.565 519.376C713.981 525.723 712.802 536.943 718.9 544.728L840.835 700.394C851.325 713.787 837.699 732.542 821.721 726.704L635.993 658.84C626.704 655.446 616.399 660.035 612.706 669.208L538.862 852.64C532.509 868.421 509.453 865.998 506.52 849.241L472.428 654.465C470.723 644.723 461.596 638.092 451.805 639.481L256.027 667.247C239.184 669.635 229.754 648.457 242.799 637.538L394.435 510.625C402.018 504.278 403.198 493.059 397.099 485.274L275.164 329.607Z" stroke="#E74141" stroke-width="1.4151"/>
<path opacity="0.413793" d="M289.584 318.564C279.809 304.642 294.399 286.625 310.049 293.292L488.404 369.263C497.502 373.139 508.034 369.096 512.202 360.128L593.911 184.327C601.081 168.901 623.979 172.527 626.031 189.415L649.415 381.86C650.608 391.677 659.375 398.777 669.225 397.902L862.327 380.764C879.272 379.26 887.58 400.903 873.981 411.124L719.011 527.598C711.105 533.539 709.341 544.682 715.023 552.775L826.416 711.437C836.191 725.36 821.602 743.377 805.951 736.71L627.596 660.738C618.498 656.863 607.966 660.906 603.798 669.874L522.089 845.674C514.919 861.101 492.022 857.474 489.97 840.587L466.586 648.141C465.393 638.325 456.626 631.225 446.775 632.099L253.673 649.238C236.728 650.742 228.42 629.099 242.019 618.878L396.99 502.404C404.895 496.462 406.66 485.32 400.977 477.226L289.584 318.564Z" stroke="#E74141" stroke-width="1.4151"/>
<path opacity="0.448276" d="M304.372 308.513C295.339 294.098 310.852 276.869 326.132 284.346L496.785 367.844C505.667 372.19 516.397 368.704 521.028 359.967L610.01 192.108C617.978 177.078 640.654 181.898 641.819 198.87L654.834 388.408C655.511 398.274 663.895 405.822 673.778 405.465L863.638 398.596C880.639 397.981 887.803 420.029 873.687 429.524L716.05 535.565C707.844 541.084 705.499 552.119 710.75 560.499L811.628 721.489C820.661 735.904 805.149 753.132 789.868 745.656L619.216 662.157C610.333 657.811 599.604 661.297 594.972 670.035L505.991 837.893C498.023 852.923 475.347 848.103 474.181 831.132L461.167 641.593C460.489 631.727 452.106 624.179 442.223 624.536L252.362 631.405C235.362 632.02 228.198 609.972 242.313 600.477L399.951 494.437C408.156 488.917 410.502 477.882 405.251 469.502L304.372 308.513Z" stroke="#E74141" stroke-width="1.4151"/>
<path opacity="0.482759" d="M319.465 299.46C311.199 284.592 327.592 268.199 342.46 276.465L505.12 366.897C513.764 371.702 524.66 368.782 529.743 360.299L625.396 200.653C634.139 186.06 656.532 192.06 656.807 209.07L659.822 395.154C659.982 405.041 667.959 413.018 677.847 413.179L863.931 416.193C880.94 416.468 886.94 438.862 872.347 447.605L712.701 543.257C704.218 548.34 701.298 559.237 706.104 567.88L796.535 730.54C804.801 745.409 788.408 761.802 773.54 753.536L610.879 663.104C602.236 658.299 591.339 661.219 586.257 669.702L490.604 829.348C481.861 843.941 459.468 837.94 459.192 820.931L456.178 634.847C456.018 624.959 448.041 616.982 438.153 616.822L252.069 613.808C235.06 613.532 229.06 591.139 243.652 582.396L403.299 486.744C411.782 481.661 414.701 470.764 409.896 462.121L319.465 299.46Z" stroke="#E74141" stroke-width="1.4151"/>
<path opacity="0.517241" d="M334.8 291.412C327.323 276.131 344.551 260.619 358.967 269.652L513.387 366.414C521.767 371.665 532.801 369.319 538.321 361.114L640.034 209.909C649.529 195.794 671.577 202.958 670.962 219.958L664.374 402.071C664.016 411.953 671.565 420.337 681.431 421.015L863.234 433.498C880.206 434.663 885.026 457.34 869.996 465.307L708.987 550.658C700.25 555.29 696.764 566.019 701.11 574.902L781.201 738.59C788.677 753.87 771.449 769.383 757.034 760.35L602.614 663.588C594.234 658.337 583.199 660.682 577.68 668.888L475.967 820.093C466.472 834.208 444.423 827.044 445.038 810.043L451.627 627.931C451.984 618.048 444.436 609.665 434.57 608.987L252.766 596.504C235.795 595.338 230.975 572.662 246.005 564.694L407.013 479.344C415.751 474.712 419.237 463.983 414.89 455.1L334.8 291.412Z" stroke="#E74141" stroke-width="1.4151"/>
<path opacity="0.551724" d="M350.313 284.365C343.646 268.714 361.663 254.125 375.586 263.899L521.557 366.383C529.651 372.066 540.793 370.301 546.735 362.396L653.893 219.82C664.113 206.221 685.756 214.529 684.252 231.474L668.485 409.131C667.61 418.981 674.71 427.749 684.527 428.941L861.58 450.455C878.467 452.507 882.094 475.405 866.667 482.575L704.928 557.748C695.96 561.916 691.917 572.448 695.793 581.546L765.688 745.635C772.354 761.286 754.338 775.876 740.415 766.101L594.443 663.617C586.35 657.935 575.207 659.699 569.266 667.605L462.108 810.18C451.887 823.779 430.244 815.471 431.748 798.526L447.516 620.869C448.39 611.019 441.291 602.252 431.474 601.059L254.421 579.545C237.533 577.493 233.907 554.596 249.333 547.426L411.073 472.252C420.041 468.084 424.083 457.552 420.208 448.454L350.313 284.365Z" stroke="#E74141" stroke-width="1.4151"/>
<path opacity="0.586207" d="M365.942 278.318C360.104 262.34 378.859 248.713 392.251 259.204L529.607 366.796C537.393 372.894 548.612 371.715 554.959 364.132L666.944 230.332C677.862 217.287 699.041 226.716 696.652 243.559L672.153 416.309C670.764 426.101 677.395 435.227 687.136 436.932L859.002 467.015C875.759 469.947 878.182 493.004 862.401 499.356L700.545 564.514C691.372 568.207 686.783 578.513 690.177 587.801L750.058 751.683C755.897 767.661 737.141 781.288 723.749 770.798L586.393 663.205C578.608 657.107 567.388 658.286 561.041 665.87L449.056 799.669C438.138 812.714 416.959 803.285 419.348 786.442L443.848 613.692C445.236 603.901 438.605 594.774 428.864 593.069L256.998 562.987C240.242 560.054 237.818 536.998 253.599 530.645L415.455 465.487C424.629 461.794 429.217 451.488 425.823 442.2L365.942 278.318Z" stroke="#E74141" stroke-width="1.4151"/>
<path opacity="0.62069" d="M381.626 273.263C376.632 257.001 396.075 244.375 408.899 255.551L537.514 367.638C544.969 374.135 556.235 373.545 562.97 366.304L679.164 241.387C690.75 228.931 711.406 239.456 708.14 256.151L675.377 423.578C673.478 433.283 679.622 442.744 689.26 444.957L855.538 483.125C872.119 486.931 873.332 510.082 857.24 515.6L695.863 570.941C686.508 574.148 681.387 584.2 684.29 593.653L734.374 756.739C739.368 773 719.925 785.627 707.101 774.45L578.486 662.363C571.031 655.866 559.765 656.456 553.03 663.697L436.836 788.614C425.25 801.07 404.594 790.545 407.861 773.85L440.623 606.423C442.522 596.718 436.378 587.257 426.74 585.045L260.462 546.876C243.882 543.07 242.668 519.919 258.76 514.401L420.137 459.061C429.492 455.853 434.613 445.801 431.71 436.348L381.626 273.263Z" stroke="#E74141" stroke-width="1.4151"/>
<path opacity="0.655172" d="M397.304 269.187C393.168 252.686 413.245 241.094 425.467 252.927L545.254 368.895C552.359 375.774 563.64 375.774 570.745 368.895L690.532 252.927C702.755 241.094 722.832 252.686 718.695 269.187L678.158 430.91C675.753 440.502 681.394 450.272 690.903 452.986L851.228 498.74C867.587 503.409 867.587 526.592 851.228 531.26L690.903 577.015C681.394 579.729 675.753 589.498 678.158 599.091L718.696 760.814C722.832 777.315 702.755 788.906 690.532 777.073L570.745 661.105C563.64 654.227 552.359 654.227 545.254 661.105L425.467 777.073C413.245 788.906 393.168 777.315 397.304 760.814L437.842 599.091C440.246 589.498 434.606 579.729 425.096 577.015L264.771 531.26C248.413 526.592 248.413 503.409 264.771 498.74L425.096 452.986C434.606 450.272 440.246 440.502 437.842 430.91L397.304 269.187Z" stroke="#E74141" stroke-width="1.4151"/>
<path opacity="0.689655" d="M412.918 266.056C409.651 249.361 430.308 238.836 441.894 251.292L552.807 370.532C559.542 377.773 570.808 378.363 578.263 371.866L701.033 264.873C713.858 253.696 733.301 266.323 728.307 282.585L680.499 438.258C677.595 447.712 682.717 457.763 692.071 460.971L846.115 513.796C862.207 519.315 860.993 542.466 844.413 546.272L685.692 582.706C676.053 584.918 669.909 594.379 671.808 604.084L703.082 763.903C706.349 780.598 685.693 791.122 674.106 778.666L563.193 659.427C556.458 652.186 545.192 651.595 537.737 658.092L414.967 765.086C402.142 776.262 382.699 763.636 387.693 747.374L435.502 591.7C438.405 582.247 433.283 572.195 423.929 568.987L269.885 516.162C253.794 510.644 255.007 487.493 271.587 483.687L430.309 447.253C439.947 445.04 446.091 435.579 444.192 425.874L412.918 266.056Z" stroke="#E74141" stroke-width="1.4151"/>
<path opacity="0.724138" d="M428.41 263.893C426.022 247.05 447.2 237.62 458.119 250.666L560.152 372.574C566.499 380.158 577.718 381.337 585.503 375.239L710.653 277.208C724.045 266.718 742.8 280.345 736.962 296.323L682.402 445.64C679.008 454.929 683.597 465.235 692.771 468.928L840.242 528.295C856.023 534.648 853.6 557.704 836.843 560.637L680.251 588.045C670.51 589.75 663.879 598.877 665.267 608.668L687.59 766.066C689.978 782.909 668.8 792.338 657.881 779.293L555.849 657.385C549.501 649.801 538.282 648.622 530.497 654.72L405.348 752.751C391.955 763.241 373.2 749.614 379.038 733.636L433.598 584.319C436.992 575.03 432.403 564.724 423.23 561.031L275.758 501.664C259.977 495.311 262.4 472.255 279.157 469.322L435.749 441.914C445.49 440.209 452.121 431.082 450.733 421.291L428.41 263.893Z" stroke="#E74141" stroke-width="1.4151"/>
<path opacity="0.758621" d="M443.725 262.656C442.221 245.711 463.864 237.403 474.085 251.001L567.269 374.984C573.21 382.889 584.353 384.654 592.446 378.972L719.382 289.853C733.305 280.078 751.321 294.667 744.655 310.318L683.874 453.009C679.999 462.107 684.042 472.639 693.01 476.807L833.657 542.177C849.084 549.347 845.457 572.245 828.57 574.297L674.606 593.005C664.789 594.198 657.689 602.965 658.564 612.815L672.275 767.305C673.779 784.249 652.136 792.557 641.915 778.959L548.731 654.976C542.79 647.071 531.648 645.306 523.554 650.988L396.618 740.107C382.695 749.882 364.679 735.293 371.345 719.642L432.126 576.951C436.001 567.853 431.958 557.321 422.99 553.153L282.343 487.783C266.916 480.613 270.543 457.715 287.43 455.663L441.394 436.955C451.211 435.762 458.311 426.995 457.436 417.145L443.725 262.656Z" stroke="#E74141" stroke-width="1.4151"/>
<path opacity="0.793103" d="M458.809 262.317C458.194 245.317 480.242 238.153 489.737 252.268L574.141 377.741C579.66 385.947 590.695 388.292 599.075 383.041L727.216 302.746C741.631 293.713 758.86 309.226 751.383 324.506L684.922 460.338C680.576 469.221 684.062 479.95 692.799 484.582L826.408 555.408C841.438 563.375 836.618 586.052 819.646 587.217L668.782 597.576C658.916 598.254 651.367 606.637 651.725 616.52L657.192 767.641C657.807 784.641 635.759 791.805 626.264 777.69L541.86 652.217C536.34 644.012 525.306 641.666 516.926 646.917L388.785 727.212C374.369 736.245 357.141 720.733 364.618 705.452L431.079 569.62C435.425 560.737 431.939 550.008 423.201 545.376L289.593 474.551C274.563 466.583 279.383 443.907 296.354 442.741L447.219 432.382C457.085 431.705 464.634 423.321 464.276 413.439L458.809 262.317Z" stroke="#E74141" stroke-width="1.4151"/>
<path opacity="0.827586" d="M473.61 262.853C473.885 245.844 496.278 239.844 505.021 254.437L580.75 380.83C585.833 389.313 596.73 392.233 605.373 387.427L734.153 315.832C749.021 307.566 765.414 323.959 757.148 338.827L685.552 467.607C680.747 476.25 683.667 487.147 692.15 492.23L818.543 567.958C833.136 576.702 827.136 599.095 810.126 599.37L662.802 601.757C652.914 601.917 644.937 609.894 644.777 619.782L642.391 767.106C642.115 784.115 619.722 790.115 610.979 775.523L535.25 649.129C530.167 640.646 519.271 637.727 510.627 642.532L381.848 714.127C366.979 722.393 350.587 706 358.853 691.132L430.448 562.352C435.253 553.709 432.333 542.812 423.85 537.73L297.457 462.001C282.864 453.258 288.865 430.865 305.874 430.589L453.198 428.203C463.086 428.042 471.063 420.065 471.223 410.177L473.61 262.853Z" stroke="#E74141" stroke-width="1.4151"/>
<path opacity="0.862069" d="M488.079 264.231C489.244 247.259 511.92 242.439 519.888 257.47L587.082 384.228C591.714 392.965 602.443 396.452 611.326 392.105L740.194 329.052C755.475 321.575 770.987 338.803 761.954 353.219L685.776 474.79C680.525 483.17 682.87 494.205 691.076 499.724L810.116 579.801C824.231 589.296 817.067 611.344 800.067 610.729L656.693 605.542C646.811 605.184 638.427 612.733 637.75 622.599L627.922 765.729C626.756 782.7 604.08 787.52 596.112 772.49L528.918 645.732C524.286 636.994 513.557 633.508 504.674 637.855L375.806 700.908C360.525 708.385 345.013 691.156 354.046 676.741L430.225 555.17C435.475 546.79 433.13 535.755 424.925 530.236L305.884 450.159C291.769 440.664 298.933 418.616 315.934 419.231L459.307 424.418C469.19 424.775 477.573 417.227 478.251 407.361L488.079 264.231Z" stroke="#E74141" stroke-width="1.4151"/>
<path opacity="0.896552" d="M502.169 266.417C504.221 249.529 527.119 245.903 534.289 261.329L593.123 387.915C597.291 396.883 607.823 400.926 616.921 397.051L745.347 342.347C760.997 335.68 775.587 353.697 765.812 367.62L685.603 481.865C679.92 489.958 681.685 501.101 689.59 507.042L801.178 590.91C814.777 601.131 806.469 622.774 789.524 621.27L650.48 608.929C640.629 608.055 631.862 615.154 630.669 624.971L613.831 763.543C611.779 780.43 588.882 784.057 581.712 768.63L522.877 642.044C518.709 633.076 508.177 629.033 499.079 632.909L370.654 687.612C355.003 694.279 340.414 676.262 350.188 662.34L430.398 548.094C436.08 540.001 434.315 528.858 426.41 522.917L314.823 439.049C301.224 428.829 309.532 407.185 326.477 408.689L465.521 421.03C475.371 421.904 484.138 414.805 485.331 404.988L502.169 266.417Z" stroke="#E74141" stroke-width="1.4151"/>
<path opacity="0.931035" d="M515.836 269.375C518.769 252.618 541.825 250.195 548.178 265.976L598.859 391.871C602.553 401.045 612.858 405.634 622.147 402.24L749.618 355.663C765.596 349.824 779.223 368.58 768.733 381.972L685.045 488.811C678.946 496.596 680.126 507.815 687.709 514.163L791.782 601.267C804.827 612.186 795.398 633.364 778.555 630.976L644.185 611.919C634.394 610.531 625.267 617.162 623.562 626.903L600.164 760.584C597.231 777.341 574.175 779.764 567.822 763.984L517.141 638.088C513.447 628.914 503.142 624.326 493.853 627.72L366.382 674.297C350.404 680.135 336.777 661.38 347.267 647.988L430.955 541.148C437.054 533.363 435.874 522.144 428.291 515.797L324.218 428.692C311.173 417.774 320.602 396.595 337.445 398.984L471.815 418.04C481.606 419.429 490.733 412.798 492.438 403.057L515.836 269.375Z" stroke="#E74141" stroke-width="1.4151"/>
<path opacity="0.965517" d="M529.04 273.068C532.846 256.488 555.997 255.274 561.515 271.366L604.281 396.075C607.489 405.429 617.54 410.551 626.994 407.647L753.022 368.944C769.284 363.949 781.91 383.392 770.734 396.217L684.116 495.607C677.618 503.063 678.209 514.329 685.45 521.064L781.982 610.856C794.438 622.442 783.914 643.098 767.219 639.831L637.835 614.513C628.13 612.614 618.669 618.758 616.456 628.396L586.96 756.892C583.155 773.473 560.003 774.686 554.485 758.594L511.72 633.885C508.512 624.531 498.46 619.409 489.007 622.313L362.978 661.017C346.716 666.011 334.09 646.568 345.267 633.743L431.885 534.353C438.382 526.897 437.792 515.632 430.551 508.896L334.018 419.104C321.562 407.518 332.087 386.862 348.782 390.129L478.165 415.447C487.87 417.346 497.332 411.202 499.544 401.564L529.04 273.068Z" stroke="#E74141" stroke-width="1.4151"/>
<path d="M541.74 277.454C546.409 261.095 569.592 261.095 574.26 277.454L609.377 400.502C612.09 410.011 621.86 415.652 631.453 413.248L755.574 382.135C772.075 377.999 783.666 398.076 771.834 410.298L682.829 502.234C675.95 509.339 675.95 520.62 682.829 527.725L771.834 619.661C783.666 631.883 772.075 651.96 755.574 647.824L631.453 616.712C621.86 614.307 612.09 619.948 609.377 629.457L574.26 752.506C569.592 768.864 546.409 768.864 541.74 752.506L506.624 629.457C503.91 619.948 494.14 614.307 484.548 616.712L360.427 647.824C343.926 651.96 332.334 631.883 344.167 619.661L433.171 527.725C440.05 520.62 440.05 509.339 433.171 502.234L344.167 410.298C332.334 398.076 343.926 377.999 360.427 382.135L484.548 413.248C494.14 415.652 503.91 410.011 506.624 400.502L541.74 277.454Z" stroke="#E74141" stroke-width="1.4151"/>
</svg>
