<svg width="1134" height="1161" viewBox="0 0 1134 1161" fill="none" xmlns="http://www.w3.org/2000/svg">
<path opacity="0.0344828" d="M145.198 270.067C150.671 263.544 158.917 259.508 169.739 257.885C180.57 256.26 193.917 257.065 209.473 260.174C240.585 266.392 280.324 281.786 326.003 305.024C417.347 351.493 532.244 429.226 649.024 527.217C765.805 625.207 862.308 724.86 923.933 806.747C954.75 847.697 976.811 884.159 988.337 913.719C994.101 928.499 997.211 941.503 997.492 952.451C997.772 963.391 995.229 972.212 989.756 978.735C984.282 985.258 976.036 989.294 965.214 990.917C954.384 992.542 941.037 991.737 925.481 988.628C894.369 982.41 854.63 967.016 808.951 943.778C717.607 897.309 602.71 819.576 485.929 721.585C369.149 623.595 272.646 523.942 211.021 442.055C180.203 401.105 158.143 364.643 146.616 335.083C140.853 320.303 137.743 307.299 137.462 296.351C137.182 285.411 139.725 276.59 145.198 270.067Z" stroke="#E74141" stroke-opacity="0.1" stroke-width="2"/>
<path opacity="0.0689655" d="M177.687 230.204C183.708 224.183 192.275 220.88 203.197 220.207C214.128 219.532 227.354 221.497 242.58 225.95C273.031 234.857 311.277 253.655 354.758 280.786C441.704 335.04 549.389 422.491 657.185 530.286C764.98 638.082 852.431 745.767 906.684 832.713C933.815 876.193 952.614 914.439 961.52 944.89C965.974 960.117 967.938 973.343 967.264 984.274C966.59 995.196 963.288 1003.76 957.267 1009.78C951.246 1015.8 942.679 1019.11 931.757 1019.78C920.827 1020.45 907.6 1018.49 892.374 1014.04C861.923 1005.13 823.677 986.332 780.197 959.201C693.251 904.947 585.565 817.496 477.77 709.701C369.974 601.905 282.523 494.22 228.27 407.274C201.139 363.794 182.34 325.548 173.434 295.096C168.981 279.87 167.016 266.644 167.69 255.713C168.364 244.791 171.666 236.225 177.687 230.204Z" stroke="#E74141" stroke-opacity="0.1" stroke-width="2"/>
<path opacity="0.103448" d="M213.143 193.305C219.665 187.832 228.487 185.289 239.426 185.57C250.374 185.85 263.379 188.96 278.159 194.724C307.718 206.25 344.18 228.311 385.13 259.128C467.017 320.753 566.671 417.256 664.661 534.037C762.651 650.817 840.384 765.714 886.853 857.058C910.092 902.738 925.485 942.476 931.704 973.588C934.813 989.144 935.618 1002.49 933.993 1013.32C932.37 1024.14 928.334 1032.39 921.811 1037.86C915.288 1043.34 906.466 1045.88 895.527 1045.6C884.579 1045.32 871.574 1042.21 856.794 1036.44C827.235 1024.92 790.773 1002.86 749.823 972.04C667.936 910.416 568.282 813.912 470.292 697.132C372.302 580.351 294.569 465.454 248.1 374.11C224.862 328.431 209.468 288.692 203.249 257.58C200.14 242.024 199.336 228.677 200.96 217.847C202.583 207.025 206.62 198.779 213.143 193.305Z" stroke="#E74141" stroke-opacity="0.1" stroke-width="2"/>
<path opacity="0.137931" d="M251.295 159.62C258.271 154.736 267.28 152.971 278.154 154.204C289.035 155.439 301.719 159.67 315.941 166.7C344.383 180.758 378.784 205.913 416.892 240.182C493.096 308.709 583.96 413.531 671.399 538.407C758.838 663.284 826.262 784.519 864.593 879.565C883.761 927.096 895.633 968.025 899.116 999.56C900.858 1015.33 900.496 1028.69 897.934 1039.34C895.374 1049.98 890.634 1057.84 883.659 1062.73C876.684 1067.61 867.674 1069.38 856.801 1068.14C845.919 1066.91 833.235 1062.68 819.013 1055.65C790.571 1041.59 756.171 1016.44 718.062 982.167C641.858 913.639 550.994 808.817 463.555 683.941C376.116 559.065 308.693 437.83 270.362 342.784C251.193 295.253 239.321 254.323 235.838 222.788C234.096 207.02 234.458 193.654 237.02 183.006C239.581 172.367 244.32 164.504 251.295 159.62Z" stroke="#E74141" stroke-opacity="0.1" stroke-width="2"/>
<path opacity="0.172414" d="M291.855 129.373C299.229 125.115 308.358 124.143 319.083 126.319C329.816 128.497 342.083 133.817 355.637 142.06C382.746 158.544 414.823 186.601 449.8 224.061C519.742 298.969 601.124 411.311 677.346 543.333C753.569 675.355 810.17 802.005 840.071 900.031C855.024 949.051 863.283 990.859 864.005 1022.58C864.366 1038.44 862.84 1051.72 859.36 1062.11C855.882 1072.48 850.475 1079.9 843.101 1084.16C835.727 1088.42 826.597 1089.39 815.873 1087.21C805.14 1085.04 792.873 1079.71 779.318 1071.47C752.21 1054.99 720.133 1026.93 685.156 989.471C615.214 914.563 533.832 802.22 457.609 670.199C381.386 538.177 324.786 411.527 294.885 313.501C279.932 264.481 271.672 222.672 270.951 190.954C270.59 175.094 272.116 161.81 275.596 151.426C279.074 141.05 284.481 133.63 291.855 129.373Z" stroke="#E74141" stroke-opacity="0.1" stroke-width="2"/>
<path opacity="0.206897" d="M334.511 102.758C342.228 99.1596 351.407 98.9863 361.901 102.089C372.404 105.194 384.16 111.563 396.945 120.956C422.514 139.74 452.024 170.486 483.602 210.852C546.749 291.571 618.03 410.578 682.457 548.741C746.883 686.904 792.23 818.005 813.474 918.263C824.097 968.401 828.682 1010.77 826.636 1042.43C825.613 1058.26 822.935 1071.36 818.563 1081.4C814.194 1091.44 808.161 1098.36 800.444 1101.96C792.727 1105.55 783.548 1105.73 773.054 1102.62C762.552 1099.52 750.795 1093.15 738.01 1083.76C712.442 1064.97 682.932 1034.23 651.353 993.862C588.206 913.143 516.925 794.135 452.499 655.972C388.072 517.809 342.726 386.708 321.481 286.45C310.858 236.312 306.274 193.944 308.319 162.283C309.342 146.452 312.02 133.351 316.392 123.31C320.761 113.277 326.794 106.357 334.511 102.758Z" stroke="#E74141" stroke-opacity="0.1" stroke-width="2"/>
<path opacity="0.241379" d="M378.941 79.9445C386.942 77.0322 396.102 77.6596 406.285 81.6648C416.477 85.6732 427.634 93.0435 439.551 103.514C463.385 124.455 490.103 157.656 518.044 200.621C573.915 286.536 634.553 411.303 686.692 554.556C738.832 697.808 772.58 832.362 785.005 934.091C791.219 984.963 792.092 1027.57 787.295 1058.93C784.896 1074.61 781.087 1087.43 775.857 1097.05C770.63 1106.67 764.017 1113.04 756.015 1115.95C748.014 1118.86 738.854 1118.23 728.671 1114.23C718.479 1110.22 707.322 1102.85 695.405 1092.38C671.571 1071.44 644.853 1038.24 616.912 995.272C561.041 909.356 500.403 784.589 448.264 641.337C396.124 498.084 362.376 363.53 349.951 261.802C343.737 210.929 342.864 168.322 347.661 136.96C350.06 121.278 353.869 108.461 359.099 98.8391C364.326 89.225 370.939 82.8568 378.941 79.9445Z" stroke="#E74141" stroke-opacity="0.1" stroke-width="2"/>
<path opacity="0.275862" d="M424.805 61.0772C433.029 58.8734 442.099 60.2967 451.895 65.1742C461.699 70.0556 472.171 78.3702 483.13 89.8399C505.048 112.779 528.771 148.182 552.861 193.418C601.032 283.876 650.564 413.453 690.02 560.705C729.476 707.956 751.368 844.94 754.88 947.364C756.636 998.585 753.793 1041.11 746.281 1071.93C742.524 1087.34 737.612 1099.78 731.563 1108.91C725.518 1118.03 718.375 1123.8 710.151 1126C701.926 1128.21 692.856 1126.78 683.06 1121.91C673.257 1117.02 662.785 1108.71 651.825 1097.24C629.907 1074.3 606.184 1038.9 582.095 993.662C533.924 903.204 484.391 773.626 444.935 626.375C405.479 479.124 383.587 342.14 380.075 239.716C378.319 188.495 381.162 145.974 388.675 115.149C392.431 99.7364 397.343 87.2997 403.392 78.1706C409.437 69.0486 416.58 63.2811 424.805 61.0772Z" stroke="#E74141" stroke-opacity="0.1" stroke-width="2"/>
<path opacity="0.310345" d="M471.755 46.2595C480.14 44.7809 489.052 46.9893 498.385 52.7021C507.726 58.4192 517.433 67.615 527.351 79.9962C547.187 104.758 567.734 142.094 587.789 189.257C627.893 283.57 665.943 416.971 692.415 567.101C718.887 717.231 728.757 855.601 723.329 957.942C720.614 1009.12 714.076 1051.23 703.906 1081.28C698.82 1096.31 692.843 1108.27 686.021 1116.84C679.205 1125.4 671.586 1130.52 663.2 1132C654.815 1133.48 645.903 1131.27 636.57 1125.56C627.229 1119.84 617.522 1110.65 607.604 1098.27C587.768 1073.5 567.221 1036.17 547.166 989.004C507.062 894.692 469.011 761.29 442.539 611.161C416.068 461.031 406.198 322.66 411.626 220.32C414.341 169.141 420.879 127.029 431.049 96.9768C436.135 81.9501 442.112 69.9887 448.934 61.4217C455.75 52.8612 463.369 47.7381 471.755 46.2595Z" stroke="#E74141" stroke-opacity="0.1" stroke-width="2"/>
<path opacity="0.344828" d="M519.434 35.5733C527.916 34.8312 536.601 37.8079 545.401 44.3124C554.208 50.8219 563.077 60.8287 571.878 74.0272C589.481 100.423 606.695 139.408 622.563 188.14C654.295 285.589 680.574 421.799 693.86 573.665C707.147 725.53 704.92 864.234 690.592 965.713C683.427 1016.46 673.244 1057.84 660.493 1086.89C654.117 1101.42 647.12 1112.81 639.578 1120.75C632.041 1128.69 624.005 1133.13 615.522 1133.87C607.04 1134.61 598.355 1131.64 589.555 1125.13C580.748 1118.62 571.879 1108.61 563.077 1095.42C545.475 1069.02 528.261 1030.04 512.392 981.303C480.661 883.854 454.382 747.644 441.095 595.779C427.809 443.913 430.036 305.209 444.364 203.731C451.528 152.983 461.712 111.602 474.463 82.55C480.839 68.0236 487.835 56.6287 495.378 48.6888C502.915 40.755 510.951 36.3155 519.434 35.5733Z" stroke="#E74141" stroke-opacity="0.1" stroke-width="2"/>
<path opacity="0.37931" d="M567.478 29.0648C575.993 29.0648 584.386 32.7871 592.585 40.0338C600.791 47.2861 608.754 58.0278 616.372 71.9432C631.606 99.7732 645.358 140.11 656.918 190.039C680.036 289.883 694.343 427.865 694.343 580.311C694.343 732.757 680.036 870.739 656.918 970.582C645.358 1020.51 631.606 1060.85 616.372 1088.68C608.754 1102.59 600.791 1113.34 592.585 1120.59C584.386 1127.83 575.993 1131.56 567.478 1131.56C558.963 1131.56 550.571 1127.83 542.371 1120.59C534.165 1113.34 526.202 1102.59 518.584 1088.68C503.35 1060.85 489.598 1020.51 478.038 970.582C454.921 870.739 440.613 732.757 440.613 580.311C440.613 427.865 454.921 289.883 478.038 190.039C489.598 140.11 503.35 99.7732 518.584 71.9432C526.202 58.0278 534.165 47.2861 542.371 40.0338C550.571 32.7871 558.963 29.0648 567.478 29.0648Z" stroke="#E74141" stroke-opacity="0.1" stroke-width="2"/>
<path opacity="0.413793" d="M615.521 26.7524C624.004 27.4945 632.04 31.9341 639.577 39.8678C647.119 47.8077 654.116 59.2026 660.492 73.729C673.243 102.781 683.426 144.162 690.591 194.91C704.919 296.388 707.146 435.092 693.86 586.958C680.573 738.823 654.294 875.033 622.562 972.482C606.694 1021.21 589.48 1060.2 571.878 1086.6C563.076 1099.79 554.207 1109.8 545.4 1116.31C536.6 1122.81 527.915 1125.79 519.433 1125.05C510.95 1124.31 502.914 1119.87 495.377 1111.93C487.835 1103.99 480.838 1092.6 474.462 1078.07C461.711 1049.02 451.528 1007.64 444.363 956.892C430.035 855.413 427.808 716.709 441.094 564.844C454.381 412.978 480.66 276.768 512.391 179.319C528.26 130.587 545.474 91.6025 563.076 65.2062C571.878 52.0077 580.747 42.0009 589.554 35.4914C598.354 28.9869 607.039 26.0102 615.521 26.7524Z" stroke="#E74141" stroke-opacity="0.1" stroke-width="2"/>
<path opacity="0.448276" d="M663.201 28.6198C671.586 30.0984 679.205 35.2215 686.022 43.782C692.844 52.349 698.821 64.3104 703.906 79.3371C714.077 109.39 720.615 151.501 723.329 202.68C728.758 305.021 718.888 443.391 692.416 593.521C665.944 743.651 627.893 877.052 587.79 971.364C567.734 1018.53 547.188 1055.86 527.352 1080.63C517.434 1093.01 507.726 1102.2 498.386 1107.92C489.052 1113.63 480.141 1115.84 471.755 1114.36C463.369 1112.88 455.751 1107.76 448.934 1099.2C442.112 1090.63 436.135 1078.67 431.05 1063.65C420.879 1033.59 414.341 991.481 411.627 940.302C406.198 837.961 416.068 699.591 442.54 549.461C469.012 399.331 507.063 265.93 547.166 171.618C567.222 124.454 587.768 87.1182 607.604 62.3565C617.522 49.9752 627.23 40.7795 636.57 35.0623C645.904 29.3496 654.815 27.1412 663.201 28.6198Z" stroke="#E74141" stroke-opacity="0.1" stroke-width="2"/>
<path opacity="0.482759" d="M710.15 34.6211C718.375 36.825 725.518 42.5926 731.563 51.7146C737.612 60.8436 742.524 73.2804 746.28 88.6932C753.793 119.518 756.636 162.039 754.88 213.26C751.368 315.684 729.476 452.668 690.02 599.919C650.564 747.17 601.031 876.748 552.86 967.206C528.771 1012.44 505.048 1047.85 483.13 1070.78C472.17 1082.25 461.698 1090.57 451.895 1095.45C442.099 1100.33 433.029 1101.75 424.804 1099.55C416.58 1097.34 409.436 1091.58 403.392 1082.45C397.342 1073.32 392.431 1060.89 388.674 1045.47C381.162 1014.65 378.319 972.129 380.075 920.908C383.587 818.484 405.479 681.5 444.935 534.249C484.391 386.997 533.923 257.42 582.094 166.962C606.184 121.726 629.906 86.3226 651.825 63.3839C662.784 51.9142 673.256 43.5995 683.06 38.7182C692.856 33.8406 701.925 32.4173 710.15 34.6211Z" stroke="#E74141" stroke-opacity="0.1" stroke-width="2"/>
<path opacity="0.517241" d="M756.015 44.6722C764.016 47.5845 770.63 53.9527 775.856 63.5668C781.087 73.1884 784.896 86.0059 787.295 101.687C792.092 133.05 791.218 175.657 785.005 226.529C772.579 328.258 738.832 462.812 686.692 606.064C634.553 749.317 573.915 874.084 518.043 959.999C490.103 1002.96 463.385 1036.16 439.551 1057.11C427.633 1067.58 416.477 1074.95 406.285 1078.96C396.101 1082.96 386.942 1083.59 378.94 1080.68C370.939 1077.76 364.326 1071.4 359.099 1061.78C353.869 1052.16 350.059 1039.34 347.661 1023.66C342.863 992.298 343.737 949.691 349.951 898.819C362.376 797.09 396.124 662.536 448.263 519.283C500.403 376.031 561.04 251.264 616.912 165.349C644.852 122.384 671.57 89.1832 695.404 68.2421C707.322 57.7712 718.479 50.4009 728.67 46.3926C738.854 42.3873 748.013 41.7599 756.015 44.6722Z" stroke="#E74141" stroke-opacity="0.1" stroke-width="2"/>
<path opacity="0.551724" d="M800.444 58.6674C808.161 62.266 814.194 69.1863 818.563 79.2194C822.935 89.2602 825.613 102.361 826.635 118.192C828.681 149.853 824.097 192.222 813.473 242.359C792.229 342.618 746.883 473.719 682.456 611.881C618.03 750.044 546.749 869.052 483.602 949.771C452.023 990.137 422.513 1020.88 396.945 1039.67C384.16 1049.06 372.403 1055.43 361.901 1058.53C351.407 1061.64 342.228 1061.46 334.511 1057.86C326.793 1054.27 320.76 1047.35 316.392 1037.31C312.019 1027.27 309.342 1014.17 308.319 998.34C306.273 966.679 310.857 924.31 321.481 874.173C342.725 773.914 388.072 642.813 452.498 504.65C516.925 366.487 588.206 247.48 651.353 166.761C682.931 126.395 712.441 95.6491 738.01 76.865C750.794 67.4727 762.551 61.1028 773.053 57.998C783.547 54.8955 792.727 55.0688 800.444 58.6674Z" stroke="#E74141" stroke-opacity="0.1" stroke-width="2"/>
<path opacity="0.586207" d="M843.101 76.4631C850.475 80.7206 855.882 88.1404 859.36 98.5161C862.84 108.9 864.365 122.184 864.005 138.044C863.283 169.763 855.024 211.571 840.071 260.591C810.169 358.617 753.569 485.267 677.346 617.289C601.123 749.311 519.741 861.653 449.8 936.561C414.823 974.021 382.746 1002.08 355.637 1018.56C342.083 1026.8 329.815 1032.13 319.083 1034.3C308.358 1036.48 299.229 1035.51 291.855 1031.25C284.481 1026.99 279.074 1019.57 275.596 1009.2C272.115 998.812 270.59 985.528 270.951 969.668C271.672 937.95 279.931 896.141 294.885 847.121C324.786 749.095 381.386 622.445 457.609 490.423C533.832 358.401 615.214 246.059 685.156 171.151C720.132 133.691 752.21 105.634 779.318 89.15C792.873 80.9077 805.14 75.5867 815.873 73.409C826.597 71.233 835.726 72.2056 843.101 76.4631Z" stroke="#E74141" stroke-opacity="0.1" stroke-width="2"/>
<path opacity="0.62069" d="M883.659 97.8937C890.634 102.778 895.373 110.641 897.934 121.28C900.496 131.927 900.858 145.294 899.116 161.062C895.633 192.597 883.761 233.526 864.592 281.057C826.261 376.104 758.838 497.339 671.399 622.215C583.96 747.091 493.096 851.913 416.892 920.44C378.783 954.709 344.383 979.864 315.941 993.923C301.719 1000.95 289.035 1005.18 278.153 1006.42C267.28 1007.65 258.27 1005.89 251.295 1001C244.32 996.118 239.58 988.255 237.02 977.616C234.458 966.969 234.096 953.602 235.838 937.834C239.321 906.299 251.193 865.369 270.361 817.839C308.692 722.792 376.116 601.557 463.555 476.681C550.994 351.805 641.858 246.983 718.062 178.456C756.17 144.186 790.571 119.032 819.013 104.973C833.234 97.9437 845.919 93.7121 856.8 92.4781C867.674 91.2451 876.683 93.0097 883.659 97.8937Z" stroke="#E74141" stroke-opacity="0.1" stroke-width="2"/>
<path opacity="0.655172" d="M921.812 122.759C928.335 128.232 932.371 136.478 933.994 147.3C935.619 158.13 934.814 171.477 931.705 187.034C925.486 218.145 910.093 257.884 886.854 303.563C840.385 394.907 762.652 509.805 664.662 626.585C566.672 743.365 467.018 839.869 385.131 901.494C344.181 932.311 307.719 954.371 278.16 965.898C263.38 971.661 250.375 974.771 239.427 975.052C228.488 975.333 219.666 972.79 213.144 967.316C206.621 961.843 202.584 953.597 200.961 942.775C199.337 931.945 200.141 918.598 203.251 903.041C209.469 871.93 224.863 832.191 248.101 786.511C294.57 695.168 372.303 580.27 470.293 463.49C568.283 346.71 667.937 250.206 749.824 188.581C790.774 157.764 827.236 135.703 856.795 124.177C871.575 118.414 884.58 115.304 895.528 115.023C906.467 114.742 915.289 117.285 921.812 122.759Z" stroke="#E74141" stroke-opacity="0.1" stroke-width="2"/>
<path opacity="0.689655" d="M957.267 150.839C963.288 156.86 966.59 165.426 967.264 176.348C967.938 187.279 965.974 200.505 961.52 215.732C952.614 246.183 933.816 284.429 906.684 327.909C852.431 414.855 764.98 522.54 657.185 630.336C549.389 738.131 441.704 825.582 354.758 879.836C311.277 906.967 273.031 925.766 242.58 934.672C227.354 939.125 214.128 941.09 203.197 940.415C192.275 939.742 183.708 936.439 177.687 930.418C171.666 924.397 168.364 915.831 167.69 904.909C167.016 893.978 168.981 880.752 173.434 865.526C182.34 835.074 201.139 796.828 228.27 753.348C282.523 666.402 369.974 558.717 477.77 450.921C585.565 343.126 693.251 255.675 780.197 201.421C823.677 174.29 861.923 155.492 892.374 146.585C907.6 142.132 920.827 140.167 931.757 140.842C942.68 141.515 951.246 144.818 957.267 150.839Z" stroke="#E74141" stroke-opacity="0.1" stroke-width="2"/>
<path opacity="0.724138" d="M989.756 181.886C995.23 188.409 997.773 197.23 997.492 208.17C997.211 219.117 994.101 232.122 988.338 246.902C976.811 276.461 954.751 312.923 923.934 353.873C862.309 435.76 765.805 535.414 649.025 633.404C532.245 731.395 417.347 809.127 326.003 855.597C280.324 878.835 240.585 894.229 209.474 900.447C193.917 903.556 180.57 904.361 169.74 902.736C158.918 901.113 150.672 897.077 145.198 890.554C139.725 884.031 137.182 875.209 137.463 864.27C137.744 853.322 140.854 840.317 146.617 825.537C158.143 795.978 180.204 759.516 211.021 718.566C272.646 636.679 369.15 537.026 485.93 439.035C602.71 341.045 717.607 263.312 808.951 216.843C854.631 193.605 894.37 178.211 925.481 171.993C941.037 168.883 954.385 168.079 965.215 169.703C976.037 171.326 984.283 175.363 989.756 181.886Z" stroke="#E74141" stroke-opacity="0.1" stroke-width="2"/>
<path opacity="0.758621" d="M1019.03 215.628C1023.92 222.603 1025.68 231.613 1024.45 242.486C1023.21 253.368 1018.98 266.052 1011.95 280.274C997.893 308.716 972.739 343.116 938.47 381.225C869.943 457.429 765.121 548.293 640.245 635.732C515.368 723.171 394.133 790.594 299.087 828.925C251.556 848.094 210.627 859.966 179.092 863.449C163.324 865.191 149.957 864.829 139.309 862.267C128.67 859.706 120.807 854.967 115.923 847.992C111.039 841.016 109.275 832.007 110.508 821.133C111.742 810.252 115.973 797.568 123.003 783.346C137.062 754.904 162.216 720.503 196.485 682.395C265.013 606.191 369.834 515.327 494.711 427.888C619.587 340.449 740.822 273.025 835.868 234.694C883.399 215.526 924.328 203.654 955.864 200.171C971.632 198.429 984.998 198.791 995.646 201.353C1006.28 203.913 1014.15 208.653 1019.03 215.628Z" stroke="#E74141" stroke-opacity="0.1" stroke-width="2"/>
<path opacity="0.793103" d="M1044.87 251.778C1049.13 259.152 1050.1 268.281 1047.92 279.006C1045.75 289.739 1040.43 302.006 1032.18 315.56C1015.7 342.669 987.642 374.746 950.182 409.723C875.274 479.665 762.932 561.047 630.91 637.27C498.888 713.492 372.238 770.093 274.213 799.994C225.192 814.947 183.384 823.207 151.665 823.928C135.805 824.289 122.521 822.763 112.137 819.283C101.762 815.805 94.3418 810.398 90.0843 803.024C85.8268 795.65 84.8542 786.521 87.0302 775.796C89.2079 765.063 94.5289 752.796 102.771 739.241C119.255 712.133 147.312 680.056 184.772 645.079C259.68 575.137 372.023 493.755 504.045 417.532C636.067 341.309 762.716 284.709 860.742 254.808C909.763 239.855 951.571 231.595 983.29 230.874C999.149 230.513 1012.43 232.039 1022.82 235.519C1033.19 238.997 1040.61 244.404 1044.87 251.778Z" stroke="#E74141" stroke-opacity="0.1" stroke-width="2"/>
<path opacity="0.827586" d="M1067.08 290.025C1070.67 297.742 1070.85 306.921 1067.75 317.415C1064.64 327.917 1058.27 339.674 1048.88 352.459C1030.09 378.027 999.348 407.537 958.982 439.116C878.263 502.263 759.256 573.544 621.093 637.97C482.93 702.397 351.829 747.743 251.57 768.987C201.433 779.611 159.064 784.195 127.403 782.149C111.572 781.127 98.4714 778.449 88.4306 774.077C78.3975 769.708 71.4772 763.675 67.8786 755.958C64.28 748.241 64.1067 739.061 67.2092 728.567C70.314 718.065 76.6839 706.309 86.0762 693.524C104.86 667.955 135.606 638.445 175.972 606.867C256.691 543.72 375.699 472.439 513.861 408.012C652.024 343.586 783.125 298.239 883.384 276.995C933.521 266.371 975.89 261.787 1007.55 263.833C1023.38 264.856 1036.48 267.533 1046.52 271.906C1056.56 276.274 1063.48 282.307 1067.08 290.025Z" stroke="#E74141" stroke-opacity="0.1" stroke-width="2"/>
<path opacity="0.862069" d="M1085.48 330.045C1088.39 338.047 1087.76 347.206 1083.76 357.39C1079.75 367.581 1072.38 378.738 1061.91 390.656C1040.97 414.49 1007.77 441.208 964.803 469.148C878.887 525.02 754.12 585.657 610.868 637.797C467.615 689.936 333.061 723.684 231.332 736.109C180.46 742.323 137.853 743.197 106.491 738.4C90.809 736.001 77.9916 732.192 68.37 726.961C58.7559 721.734 52.3877 715.121 49.4754 707.12C46.5631 699.118 47.1905 689.959 51.1958 679.775C55.2041 669.584 62.5744 658.427 73.0453 646.509C93.9864 622.675 127.187 595.957 170.152 568.017C256.067 512.145 380.834 451.508 524.087 399.368C667.339 347.229 801.893 313.481 903.622 301.056C954.494 294.842 997.102 293.968 1028.46 298.765C1044.15 301.164 1056.96 304.973 1066.58 310.204C1076.2 315.431 1082.57 322.044 1085.48 330.045Z" stroke="#E74141" stroke-opacity="0.1" stroke-width="2"/>
<path opacity="0.896552" d="M1099.94 371.501C1102.14 379.726 1100.72 388.796 1095.84 398.591C1090.96 408.395 1082.65 418.867 1071.18 429.826C1048.24 451.745 1012.84 475.467 967.599 499.557C877.141 547.728 747.564 597.26 600.312 636.716C453.061 676.172 316.077 698.064 213.653 701.576C162.433 703.332 119.911 700.489 89.0865 692.977C73.6737 689.22 61.2369 684.309 52.1079 678.259C42.9859 672.215 37.2183 665.072 35.0145 656.847C32.8107 648.622 34.2339 639.552 39.1115 629.756C43.9929 619.953 52.3075 609.481 63.7772 598.521C86.7159 576.603 122.119 552.88 167.355 528.791C257.813 480.62 387.391 431.087 534.642 391.631C681.893 352.175 818.877 330.283 921.301 326.772C972.522 325.015 1015.04 327.858 1045.87 335.371C1061.28 339.127 1073.72 344.039 1082.85 350.088C1091.97 356.133 1097.74 363.276 1099.94 371.501Z" stroke="#E74141" stroke-opacity="0.1" stroke-width="2"/>
<path opacity="0.931035" d="M1110.35 414.041C1111.83 422.427 1109.62 431.338 1103.91 440.672C1098.19 450.012 1088.99 459.72 1076.61 469.638C1051.85 489.474 1014.51 510.02 967.35 530.076C873.038 570.179 739.636 608.23 589.507 634.702C439.377 661.174 301.006 671.044 198.666 665.615C147.487 662.901 105.375 656.363 75.3227 646.192C60.2959 641.107 48.3346 635.13 39.7675 628.308C31.207 621.491 26.084 613.873 24.6054 605.487C23.1268 597.101 25.3351 588.19 31.0479 578.857C36.7651 569.516 45.9608 559.808 58.342 549.89C83.1037 530.054 120.44 509.508 167.603 489.453C261.915 449.349 395.317 411.298 545.447 384.826C695.577 358.354 833.947 348.484 936.288 353.913C987.466 356.627 1029.58 363.166 1059.63 373.336C1074.66 378.421 1086.62 384.398 1095.19 391.22C1103.75 398.037 1108.87 405.656 1110.35 414.041Z" stroke="#E74141" stroke-opacity="0.1" stroke-width="2"/>
<path opacity="0.965517" d="M1116.62 457.312C1117.37 465.795 1114.39 474.48 1107.89 483.28C1101.38 492.086 1091.37 500.956 1078.17 509.757C1051.77 527.359 1012.79 544.574 964.058 560.442C866.61 592.173 730.399 618.452 578.534 631.739C426.668 645.025 287.964 642.798 186.486 628.471C135.738 621.306 94.3568 611.122 65.305 598.371C50.7786 591.995 39.3837 584.999 31.4438 577.456C23.51 569.919 19.0705 561.883 18.3284 553.401C17.5863 544.918 20.5629 536.233 27.0674 527.433C33.5769 518.626 43.5837 509.757 56.7822 500.956C83.1785 483.354 122.163 466.139 170.895 450.271C268.344 418.539 404.554 392.26 556.42 378.974C708.285 365.687 846.989 367.914 948.468 382.242C999.215 389.407 1040.6 399.59 1069.65 412.341C1084.17 418.717 1095.57 425.714 1103.51 433.256C1111.44 440.793 1115.88 448.829 1116.62 457.312Z" stroke="#E74141" stroke-opacity="0.1" stroke-width="2"/>
<path d="M1118.72 500.946C1118.72 509.461 1115 517.854 1107.75 526.053C1100.5 534.259 1089.76 542.223 1075.84 549.84C1048.01 565.075 1007.68 578.826 957.749 590.387C857.905 613.504 719.923 627.812 567.477 627.812C415.032 627.812 277.049 613.504 177.206 590.387C127.276 578.826 86.9398 565.075 59.1098 549.84C45.1944 542.223 34.4527 534.259 27.2004 526.053C19.9537 517.854 16.2314 509.461 16.2314 500.946C16.2314 492.431 19.9537 484.039 27.2004 475.839C34.4527 467.633 45.1944 459.67 59.1098 452.053C86.9398 436.818 127.276 423.067 177.206 411.506C277.049 388.389 415.032 374.081 567.477 374.081C719.923 374.081 857.905 388.389 957.749 411.506C1007.68 423.067 1048.01 436.818 1075.84 452.053C1089.76 459.67 1100.5 467.633 1107.75 475.839C1115 484.039 1118.72 492.431 1118.72 500.946Z" stroke="#E74141" stroke-opacity="0.1" stroke-width="2"/>
</svg>
