<svg width="113" height="113" viewBox="0 0 113 113" fill="none" xmlns="http://www.w3.org/2000/svg">
<path d="M51.5 2.88675C54.594 1.10042 58.406 1.10042 61.5 2.88675L100.43 25.3632C103.524 27.1496 105.43 30.4508 105.43 34.0235V78.9765C105.43 82.5491 103.524 85.8504 100.43 87.6367L61.5 110.113C58.406 111.9 54.594 111.9 51.5 110.113L12.5696 87.6367C9.47556 85.8504 7.56956 82.5492 7.56956 78.9765V34.0235C7.56956 30.4508 9.47555 27.1496 12.5696 25.3632L51.5 2.88675Z" fill="#E74141"/>
<path d="M47.0651 37H29.8651V40.02H36.6651V51H40.2651V40.02H47.0651V37ZM48.2487 35V37.98H51.6687V35H48.2487ZM48.2487 39.22V51H51.6687V39.22H48.2487ZM60.9305 48.42C58.6505 48.42 56.8505 47.8 56.4705 45.92H69.1905C69.1905 40.56 65.6105 39.02 61.1305 39.02C56.3505 39.02 52.9705 40.78 52.9705 45.12C52.9705 49.44 56.4505 51.2 60.9305 51.2C65.2905 51.2 68.2105 49.78 68.9905 46.78H65.5905C64.7305 47.98 63.2905 48.42 60.9305 48.42ZM61.1105 41.62C63.2705 41.62 64.9505 42.08 65.5305 43.74H56.5905C57.1305 42.08 58.7705 41.62 61.1105 41.62ZM79.9548 39.02C77.7548 39.02 75.6748 39.64 73.9148 41.22V39.22H70.4948V51H73.9148V43.94C75.9948 42.32 78.1948 41.88 80.1148 41.88C81.1148 41.88 82.0148 42 83.1348 42.28V39.42C82.3348 39.22 81.3548 39.02 79.9548 39.02ZM62.2765 68C63.6165 67.36 64.4365 66.4 64.4365 64.94C64.4365 61.84 61.6165 60.8 56.6965 60.8C51.8365 60.8 48.5565 61.84 48.5565 66.3H52.1565C52.1565 64.18 53.4765 63.82 56.8965 63.82C59.9965 63.82 60.8365 64.18 60.8365 65.4C60.8365 66.8 59.6565 66.92 54.8965 66.92V69.08C59.7565 69.08 60.8365 69.2 60.8365 70.6C60.8365 71.94 59.7565 72.18 56.8965 72.18C53.8165 72.18 52.1565 71.94 52.1565 69.7H48.5565C48.5565 74.16 51.8365 75.2 56.6965 75.2C61.6165 75.2 64.4365 74.16 64.4365 71.06C64.4365 69.6 63.6165 68.64 62.2765 68Z" fill="white"/>
</svg>
